<svg width="40" height="40" viewBox="0 0 40 40" fill="none" xmlns="http://www.w3.org/2000/svg">
<g opacity="0.6">
<path d="M20 30C27.3638 30 33.3333 24.0305 33.3333 16.6667C33.3333 9.30288 27.3638 3.33334 20 3.33334C12.6362 3.33334 6.66666 9.30288 6.66666 16.6667C6.66666 24.0305 12.6362 30 20 30Z" stroke="white" stroke-width="2" stroke-linecap="round" stroke-linejoin="round"/>
<path d="M20 21.6667C22.7614 21.6667 25 19.4281 25 16.6667C25 13.9052 22.7614 11.6667 20 11.6667C17.2386 11.6667 15 13.9052 15 16.6667C15 19.4281 17.2386 21.6667 20 21.6667Z" stroke="white" stroke-width="2" stroke-linecap="round" stroke-linejoin="round"/>
<path d="M11.6667 36.6667H28.3333" stroke="white" stroke-width="2" stroke-linecap="round" stroke-linejoin="round"/>
<path d="M20 36.6667V30" stroke="white" stroke-width="2" stroke-linecap="round" stroke-linejoin="round"/>
</g>
</svg>
