<svg width="24" height="24" viewBox="0 0 24 24" fill="none" xmlns="http://www.w3.org/2000/svg">
<path d="M3 21C6 21 10 20 10 13V5C10 3.75 9.244 2.983 8 3H4C2.75 3 2 3.75 2 4.972V11C2 12.25 2.75 13 4 13C5 13 5 13 5 14V15C5 16 4 17 3 17C2 17 2 17.008 2 18.031V20C2 21 2 21 3 21Z" fill="black" fill-opacity="0.2"/>
<path d="M15 21C18 21 22 20 22 13V5C22 3.75 21.243 2.983 20 3H16C14.75 3 14 3.75 14 4.972V11C14 12.25 14.75 13 16 13H16.75C16.75 15.25 17 17 14 17V20C14 21 14 21 15 21Z" fill="black" fill-opacity="0.2"/>
</svg>
