<svg width="16" height="15" viewBox="0 0 16 15" fill="none" xmlns="http://www.w3.org/2000/svg">
<path d="M7.10328 1.4833C7.47012 0.740134 8.52986 0.740134 8.8967 1.4833L10.3425 4.41243C10.4881 4.70728 10.7693 4.91174 11.0946 4.95929L14.3295 5.43212C15.1495 5.55197 15.4762 6.55981 14.8826 7.13797L12.5434 9.41635C12.3076 9.64609 12.1999 9.97722 12.2556 10.3017L12.8074 13.5193C12.9475 14.3363 12.09 14.9592 11.3564 14.5734L8.46544 13.0531C8.17406 12.8999 7.82592 12.8999 7.53454 13.0531L4.64362 14.5734C3.90999 14.9592 3.05244 14.3363 3.19256 13.5193L3.74441 10.3017C3.80007 9.97722 3.69241 9.64609 3.45653 9.41635L1.11734 7.13797C0.523743 6.55981 0.850525 5.55197 1.67044 5.43212L4.90536 4.95929C5.23071 4.91174 5.5119 4.70728 5.65744 4.41243L7.10328 1.4833Z" fill="#FFB800"/>
</svg>
