<svg width="19" height="19" viewBox="0 0 19 19" fill="none" xmlns="http://www.w3.org/2000/svg">
<path d="M16.4376 9.90264C16.7493 9.49073 16.9219 8.98604 16.9219 8.46095C16.9219 7.62784 16.4562 6.83927 15.7065 6.39952C15.5136 6.28633 15.2938 6.22675 15.0701 6.22696H10.6207L10.732 3.94659C10.758 3.39552 10.5632 2.87227 10.1847 2.47335C9.99891 2.27672 9.7748 2.12028 9.52619 2.01368C9.27758 1.90709 9.00975 1.85261 8.73926 1.85362C7.77441 1.85362 6.9209 2.50303 6.66484 3.43262L5.071 9.20313H5.06543V17.1445H13.8288C13.9995 17.1445 14.1665 17.1111 14.3205 17.0443C15.2037 16.6677 15.7733 15.8049 15.7733 14.8475C15.7733 14.6137 15.7399 14.3836 15.6731 14.1609C15.9849 13.749 16.1574 13.2443 16.1574 12.7192C16.1574 12.4855 16.124 12.2554 16.0572 12.0327C16.3689 11.6208 16.5415 11.1161 16.5415 10.591C16.5378 10.3572 16.5044 10.1253 16.4376 9.90264ZM2.07812 9.79688V16.5508C2.07812 16.8792 2.34346 17.1445 2.67188 17.1445H3.87793V9.20313H2.67188C2.34346 9.20313 2.07812 9.46846 2.07812 9.79688Z" fill="#525252"/>
</svg>
