<svg width="20" height="20" viewBox="0 0 20 20" fill="none" xmlns="http://www.w3.org/2000/svg">
<path d="M7.49999 14.1667H5.83332C4.72825 14.1667 3.66845 13.7277 2.88704 12.9463C2.10564 12.1649 1.66666 11.1051 1.66666 10C1.66666 8.89493 2.10564 7.83512 2.88704 7.05372C3.66845 6.27232 4.72825 5.83333 5.83332 5.83333H7.49999" stroke="black" stroke-opacity="0.4" stroke-width="3" stroke-linecap="round" stroke-linejoin="round"/>
<path d="M12.5 5.83333H14.1667C15.2717 5.83333 16.3315 6.27232 17.1129 7.05372C17.8943 7.83512 18.3333 8.89493 18.3333 10C18.3333 11.1051 17.8943 12.1649 17.1129 12.9463C16.3315 13.7277 15.2717 14.1667 14.1667 14.1667H12.5" stroke="black" stroke-opacity="0.4" stroke-width="3" stroke-linecap="round" stroke-linejoin="round"/>
<path d="M6.66666 10H13.3333" stroke="black" stroke-opacity="0.4" stroke-width="3" stroke-linecap="round" stroke-linejoin="round"/>
</svg>
