<svg width="22" height="22" viewBox="0 0 22 22" fill="none" xmlns="http://www.w3.org/2000/svg">
<g clip-path="url(#clip0_107_49)">
<path d="M2.75 2.75V21.3125C2.74991 21.4319 2.78092 21.5492 2.83996 21.653C2.899 21.7568 2.98405 21.8434 3.08673 21.9043C3.1894 21.9652 3.30618 21.9983 3.42554 22.0004C3.54491 22.0025 3.66277 21.9734 3.7675 21.9161L11 17.9699L18.2325 21.9161C18.3372 21.9734 18.4551 22.0025 18.5745 22.0004C18.6938 21.9983 18.8106 21.9652 18.9133 21.9043C19.016 21.8434 19.101 21.7568 19.16 21.653C19.2191 21.5492 19.2501 21.4319 19.25 21.3125V2.75C19.25 2.02065 18.9603 1.32118 18.4445 0.805456C17.9288 0.289731 17.2293 0 16.5 0L5.5 0C4.77065 0 4.07118 0.289731 3.55546 0.805456C3.03973 1.32118 2.75 2.02065 2.75 2.75Z" fill="#757575"/>
</g>
<defs>
<clipPath id="clip0_107_49">
<rect width="22" height="22" fill="white"/>
</clipPath>
</defs>
</svg>
