<svg width="32" height="26" viewBox="0 0 32 26" fill="none" xmlns="http://www.w3.org/2000/svg">
<path d="M26.88 11.507C27.085 10.9637 27.2 10.3695 27.2 9.75C27.2 7.05859 25.05 4.875 22.4 4.875C21.415 4.875 20.495 5.17969 19.735 5.69766C18.35 3.26016 15.765 1.625 12.8 1.625C8.38 1.625 4.8 5.26094 4.8 9.75C4.8 9.88711 4.805 10.0242 4.81 10.1613C2.01 11.1617 0 13.8734 0 17.0625C0 21.0996 3.225 24.375 7.2 24.375H25.6C29.135 24.375 32 21.4652 32 17.875C32 14.7316 29.8 12.1063 26.88 11.507ZM20.235 16.0113L14.965 21.3637C14.655 21.6785 14.145 21.6785 13.835 21.3637L8.565 16.0113C8.06 15.4984 8.42 14.625 9.13 14.625H12.4V8.9375C12.4 8.49062 12.76 8.125 13.2 8.125H15.6C16.04 8.125 16.4 8.49062 16.4 8.9375V14.625H19.67C20.38 14.625 20.74 15.4984 20.235 16.0113Z" fill="#1D4ED8"/>
</svg>
