<svg width="25" height="19" viewBox="0 0 25 19" fill="none" xmlns="http://www.w3.org/2000/svg">
<path d="M9.21485 9.5C9.21485 10.2832 9.54903 11.0344 10.1439 11.5882C10.7387 12.142 11.5455 12.4531 12.3867 12.4531C13.228 12.4531 14.0347 12.142 14.6296 11.5882C15.2244 11.0344 15.5586 10.2832 15.5586 9.5C15.5586 8.71678 15.2244 7.96564 14.6296 7.41183C14.0347 6.85801 13.228 6.54688 12.3867 6.54688C11.5455 6.54688 10.7387 6.85801 10.1439 7.41183C9.54903 7.96564 9.21485 8.71678 9.21485 9.5ZM24.6834 8.81973C21.9986 3.5542 17.9403 0.904297 12.5 0.904297C7.05685 0.904297 3.00138 3.5542 0.316613 8.82236C0.208926 9.03466 0.153076 9.26653 0.153076 9.50132C0.153076 9.7361 0.208926 9.96797 0.316613 10.1803C3.00138 15.4458 7.05968 18.0957 12.5 18.0957C17.9432 18.0957 21.9986 15.4458 24.6834 10.1776C24.9015 9.75049 24.9015 9.25479 24.6834 8.81973ZM12.3867 14.1406C9.634 14.1406 7.40235 12.0629 7.40235 9.5C7.40235 6.93711 9.634 4.85938 12.3867 4.85938C15.1395 4.85938 17.3711 6.93711 17.3711 9.5C17.3711 12.0629 15.1395 14.1406 12.3867 14.1406Z" fill="#757575"/>
</svg>
