<svg width="23" height="23" viewBox="0 0 23 23" fill="none" xmlns="http://www.w3.org/2000/svg">
<g clip-path="url(#clip0_108_79)">
<path d="M23.0001 11.5705C23.0001 5.17938 17.851 -0.00137329 11.5001 -0.00137329C5.14637 6.42091e-05 -0.0027504 5.17938 -0.0027504 11.5719C-0.0027504 17.3464 4.20337 22.1332 9.70037 23.0015V14.9156H6.78225V11.5719H9.70325V9.02038C9.70325 6.12094 11.4211 4.51956 14.0474 4.51956C15.3066 4.51956 16.6219 4.74525 16.6219 4.74525V7.5915H15.1715C13.7441 7.5915 13.2984 8.48419 13.2984 9.39988V11.5705H16.4868L15.9779 14.9141H13.297V23.0001C18.794 22.1318 23.0001 17.3449 23.0001 11.5705Z" fill="white"/>
</g>
<defs>
<clipPath id="clip0_108_79">
<rect width="23" height="23" fill="white"/>
</clipPath>
</defs>
</svg>
