<svg width="23" height="23" viewBox="0 0 23 23" fill="none" xmlns="http://www.w3.org/2000/svg">
<path d="M20.7314 6.36991C20.4304 5.6728 19.9963 5.04109 19.4534 4.51014C18.9102 3.97761 18.2696 3.55441 17.5667 3.26356C16.8378 2.96077 16.056 2.80579 15.2667 2.8076C14.1594 2.8076 13.079 3.11083 12.1401 3.68358C11.9155 3.82059 11.7021 3.97108 11.5 4.13504C11.2979 3.97108 11.0845 3.82059 10.8599 3.68358C9.921 3.11083 8.84062 2.8076 7.7333 2.8076C6.93594 2.8076 6.16328 2.96034 5.4333 3.26356C4.72803 3.55555 4.09238 3.97557 3.54658 4.51014C3.00302 5.04049 2.56881 5.67235 2.26855 6.36991C1.95635 7.09539 1.79688 7.8658 1.79688 8.65868C1.79688 9.40662 1.94961 10.186 2.25283 10.9789C2.50664 11.6415 2.87051 12.3288 3.33545 13.0228C4.07217 14.1212 5.08516 15.2667 6.34297 16.4279C8.42734 18.3528 10.4915 19.6825 10.5791 19.7364L11.1114 20.0778C11.3473 20.2283 11.6505 20.2283 11.8863 20.0778L12.4187 19.7364C12.5062 19.6803 14.5682 18.3528 16.6548 16.4279C17.9126 15.2667 18.9256 14.1212 19.6623 13.0228C20.1272 12.3288 20.4934 11.6415 20.7449 10.9789C21.0481 10.186 21.2009 9.40662 21.2009 8.65868C21.2031 7.8658 21.0437 7.09539 20.7314 6.36991Z" fill="#525252"/>
</svg>
