<svg width="18" height="24" viewBox="0 0 18 24" fill="none" xmlns="http://www.w3.org/2000/svg">
<g clip-path="url(#clip0_108_60)">
<path d="M16.4818 10.1582C17.1148 10.5535 17.5 11.2498 17.5 12C17.5 12.7502 17.1148 13.4465 16.4818 13.8014L3.7331 21.7076C3.07701 22.1524 2.25578 22.1703 1.58552 21.7885C1.2561 21.6009 0.981877 21.3276 0.791085 20.9968C0.600293 20.666 0.499818 20.2896 0.5 19.9063V4.09376C0.500054 3.71068 0.600641 3.33453 0.791421 3.00396C0.982201 2.6734 1.25629 2.40035 1.58552 2.21288C1.91482 2.02559 2.28734 1.93066 2.66477 1.93785C3.04221 1.94503 3.41095 2.05407 3.7331 2.25376L16.4818 10.1582Z" fill="white"/>
</g>
<defs>
<clipPath id="clip0_108_60">
<rect width="17" height="23" fill="white" transform="translate(0.5 0.5)"/>
</clipPath>
</defs>
</svg>
