<svg width="18" height="15" viewBox="0 0 18 15" fill="none" xmlns="http://www.w3.org/2000/svg">
<path d="M16.7454 12.8835L13.6341 10.3801C14.638 9.34801 15.1826 8.07355 15.1806 6.76153C15.1806 5.59308 14.7513 4.45087 13.9469 3.47933C13.1425 2.5078 11.9992 1.75058 10.6615 1.30344C9.32384 0.856289 7.85192 0.739295 6.43186 0.967249C5.01181 1.1952 3.70741 1.75787 2.68361 2.58409C1.65981 3.41031 0.962591 4.46298 0.680125 5.60898C0.397659 6.75498 0.542631 7.94284 1.09671 9.02235C1.65079 10.1019 2.58908 11.0245 3.79294 11.6737C4.99681 12.3228 6.41216 12.6693 7.86004 12.6693C9.4858 12.671 11.065 12.2314 12.3439 11.4213L15.446 13.9321C15.5311 14.0013 15.6323 14.0563 15.7438 14.0938C15.8553 14.1313 15.9749 14.1506 16.0957 14.1506C16.2165 14.1506 16.3361 14.1313 16.4476 14.0938C16.5591 14.0563 16.6603 14.0013 16.7454 13.9321C16.8312 13.8635 16.8992 13.7818 16.9457 13.6918C16.9921 13.6018 17.0161 13.5053 17.0161 13.4078C17.0161 13.3103 16.9921 13.2138 16.9457 13.1238C16.8992 13.0338 16.8312 12.9521 16.7454 12.8835ZM2.36961 6.76153C2.36961 5.88519 2.69161 5.02853 3.29491 4.29988C3.89821 3.57123 4.7557 3.00332 5.75894 2.66796C6.76219 2.3326 7.86613 2.24485 8.93117 2.41582C9.99621 2.58679 10.9745 3.00878 11.7424 3.62845C12.5102 4.24811 13.0331 5.03762 13.245 5.89712C13.4568 6.75662 13.3481 7.64751 12.9325 8.45715C12.517 9.26678 11.8133 9.95878 10.9104 10.4457C10.0075 10.9325 8.94594 11.1924 7.86004 11.1924C6.40388 11.1924 5.00737 10.7256 3.97772 9.89462C2.94806 9.06367 2.36961 7.93667 2.36961 6.76153Z" fill="#CDCDCD"/>
</svg>
