<svg width="22" height="24" viewBox="0 0 22 24" fill="none" xmlns="http://www.w3.org/2000/svg">
<path d="M21.7759 8.70882C21.7078 8.49283 21.5825 8.30304 21.4154 8.16289C21.2483 8.02274 21.0467 7.93835 20.8356 7.92015L14.6595 7.39165L11.9869 1.02049C11.9018 0.815284 11.7633 0.640995 11.5883 0.518654C11.4132 0.396312 11.209 0.331148 11.0003 0.331024C10.7916 0.330901 10.5874 0.395824 10.4122 0.517958C10.237 0.640093 10.0984 0.814218 10.0131 1.01932L7.34049 7.39165L1.1644 7.92015C0.956898 7.93786 0.758521 8.01957 0.593006 8.15551C0.427491 8.29145 0.301847 8.47586 0.231105 8.68669C0.160364 8.89751 0.14752 9.12582 0.194111 9.34431C0.240703 9.56279 0.344755 9.76219 0.493821 9.91865L5.0579 14.7102L3.44374 22.2375C3.39472 22.4653 3.41043 22.7038 3.48883 22.9219C3.56722 23.14 3.70467 23.3277 3.88336 23.4607C4.06204 23.5936 4.2737 23.6656 4.49087 23.6674C4.70804 23.6692 4.92069 23.6006 5.10124 23.4707L11 19.2357L16.8987 23.4707C17.0833 23.6026 17.3009 23.6705 17.5223 23.6653C17.7438 23.6601 17.9584 23.5819 18.1374 23.4414C18.3164 23.3009 18.4511 23.1047 18.5235 22.8792C18.5958 22.6538 18.6024 22.4099 18.5422 22.1803L16.5607 14.7137L21.4747 9.95132C21.7965 9.63865 21.9146 9.15099 21.7759 8.70882Z" fill="#1D4ED8"/>
</svg>
