<svg width="31" height="31" viewBox="0 0 31 31" fill="none" xmlns="http://www.w3.org/2000/svg">
<path d="M25.3593 10.3295C25.3761 10.5555 25.3761 10.7803 25.3761 11.005C25.3761 17.8831 20.141 25.8088 10.5736 25.8088C7.626 25.8088 4.88767 24.955 2.58334 23.4722C3.00184 23.52 3.40484 23.5368 3.84013 23.5368C6.18191 23.5424 8.45738 22.7594 10.2998 21.3138C9.21401 21.2942 8.1615 20.9359 7.28919 20.2892C6.41687 19.6424 5.76831 18.7394 5.43404 17.7062C5.75567 17.754 6.07859 17.7863 6.417 17.7863C6.88329 17.7863 7.35217 17.7217 7.78746 17.6093C6.60915 17.3714 5.54961 16.7327 4.78901 15.8019C4.02841 14.871 3.61369 13.7054 3.61538 12.5033V12.4388C4.309 12.825 5.11371 13.0665 5.96621 13.0988C5.25203 12.6242 4.66643 11.9803 4.26165 11.2243C3.85687 10.4684 3.64549 9.62404 3.64638 8.76656C3.64638 7.80039 3.90342 6.91431 4.35421 6.14189C5.66156 7.75004 7.29211 9.06566 9.14027 10.0035C10.9884 10.9414 13.013 11.4806 15.0828 11.5863C15.0027 11.1988 14.9536 10.7971 14.9536 10.3941C14.9533 9.71072 15.0876 9.03401 15.349 8.40262C15.6103 7.77123 15.9936 7.19754 16.4767 6.71434C16.9599 6.23115 17.5336 5.84792 18.165 5.58657C18.7964 5.32523 19.4731 5.19088 20.1565 5.19122C21.6548 5.19122 23.0072 5.81897 23.9578 6.83422C25.1226 6.60898 26.2396 6.18377 27.2593 5.57743C26.8711 6.77974 26.0578 7.79923 24.9718 8.44493C26.0049 8.32711 27.0145 8.05543 27.9672 7.63893C27.2556 8.67627 26.3739 9.58592 25.3593 10.3295Z" fill="white"/>
</svg>
