<svg width="17" height="15" viewBox="0 0 17 15" fill="none" xmlns="http://www.w3.org/2000/svg">
<path d="M8.25586 3.33984L6.12695 8.74023C6.37435 8.74674 6.63477 8.75326 6.9082 8.75977C7.18815 8.75977 7.55924 8.75977 8.02148 8.75977C8.55534 8.75977 8.97201 8.75977 9.27148 8.75977C9.57096 8.75326 9.85091 8.74674 10.1113 8.74023L8.25586 3.33984ZM7.71875 0.996094H10.1016C11.0391 3.74349 11.931 6.26953 12.7773 8.57422C13.6302 10.8724 14.2259 12.4023 14.5645 13.1641C14.7077 13.5091 14.8867 13.7565 15.1016 13.9062C15.3229 14.0495 15.6159 14.1211 15.9805 14.1211H16.1953V15C15.3685 14.9609 14.7337 14.9349 14.291 14.9219C13.8483 14.9089 13.4772 14.9023 13.1777 14.9023C12.8913 14.9023 12.5202 14.9089 12.0645 14.9219C11.6087 14.9349 10.9479 14.9609 10.082 15V14.1211H10.2578C10.7721 14.1211 11.1204 14.0625 11.3027 13.9453C11.485 13.8281 11.5762 13.6198 11.5762 13.3203C11.5762 13.2292 11.5632 13.1217 11.5371 12.998C11.5176 12.8743 11.472 12.7018 11.4004 12.4805L10.5996 10.1172C10.2285 10.1107 9.74023 10.1042 9.13477 10.0977C8.5293 10.0846 8.15169 10.0781 8.00195 10.0781C7.72201 10.0781 7.15885 10.0879 6.3125 10.1074C6.00651 10.1139 5.76888 10.1172 5.59961 10.1172L5.56055 10.2148C4.92253 11.7708 4.60352 12.7539 4.60352 13.1641C4.60352 13.5026 4.69792 13.7467 4.88672 13.8965C5.08203 14.0462 5.40104 14.1211 5.84375 14.1211H6.01953V15C5.27734 14.9609 4.70117 14.9349 4.29102 14.9219C3.88086 14.9089 3.54232 14.9023 3.27539 14.9023C3.05404 14.9023 2.76107 14.9089 2.39648 14.9219C2.03841 14.9349 1.51432 14.9609 0.824219 15V14.1211C1.29297 14.1211 1.66732 14.0397 1.94727 13.877C2.22721 13.7142 2.46484 13.4408 2.66016 13.0566C2.9401 12.5488 3.57161 11.1296 4.55469 8.79883C5.53776 6.4681 6.59245 3.86719 7.71875 0.996094Z" fill="white"/>
</svg>
