<svg width="38" height="38" viewBox="0 0 38 38" fill="none" xmlns="http://www.w3.org/2000/svg">
<g clip-path="url(#clip0_3_168)">
<path d="M19 3.42349C24.0732 3.42349 24.6741 3.4428 26.6776 3.53421C28.53 3.61876 29.5361 3.92828 30.2057 4.18841C31.0925 4.53308 31.7255 4.94488 32.3903 5.60971C33.0551 6.27454 33.4669 6.90755 33.8115 7.79434C34.0717 8.46393 34.3812 9.46996 34.4658 11.3224C34.5572 13.3259 34.5765 13.9268 34.5765 19C34.5765 24.0733 34.5572 24.6742 34.4658 26.6776C34.3812 28.5301 34.0717 29.5361 33.8115 30.2057C33.4669 31.0925 33.0551 31.7255 32.3903 32.3904C31.7255 33.0552 31.0925 33.467 30.2057 33.8116C29.5361 34.0718 28.53 34.3813 26.6776 34.4659C24.6744 34.5573 24.0735 34.5766 19 34.5766C13.9264 34.5766 13.3255 34.5573 11.3224 34.4659C9.46989 34.3813 8.46385 34.0718 7.79434 33.8116C6.90747 33.467 6.27447 33.0552 5.60963 32.3904C4.9448 31.7255 4.53301 31.0925 4.18841 30.2057C3.92821 29.5361 3.61868 28.5301 3.53413 26.6777C3.44272 24.6742 3.42342 24.0733 3.42342 19C3.42342 13.9268 3.44272 13.3259 3.53413 11.3224C3.61868 9.46996 3.92821 8.46393 4.18841 7.79434C4.53301 6.90755 4.9448 6.27454 5.60963 5.60971C6.27447 4.94488 6.90747 4.53308 7.79434 4.18841C8.46385 3.92828 9.46989 3.61876 11.3223 3.53421C13.3258 3.4428 13.9267 3.42349 19 3.42349ZM19 0C13.8398 0 13.1929 0.021872 11.1663 0.114338C9.14392 0.206652 7.76282 0.527794 6.5542 0.997513C5.30478 1.48307 4.2452 2.13274 3.18893 3.18901C2.13267 4.24528 1.483 5.30486 0.997438 6.55428C0.527718 7.76289 0.206577 9.144 0.114262 11.1664C0.0217966 13.1929 0 13.8399 0 19C0 24.1602 0.0217966 24.8072 0.114262 26.8337C0.206577 28.8561 0.527718 30.2372 0.997438 31.4458C1.483 32.6951 2.13267 33.7548 3.18893 34.8111C4.2452 35.8673 5.30478 36.517 6.5542 37.0026C7.76282 37.4723 9.14392 37.7934 11.1663 37.8857C13.1929 37.9782 13.8398 38 19 38C24.1601 38 24.8071 37.9782 26.8336 37.8857C28.856 37.7934 30.2371 37.4723 31.4457 37.0026C32.6951 36.517 33.7547 35.8673 34.811 34.8111C35.8673 33.7548 36.5169 32.6952 37.0025 31.4458C37.4722 30.2372 37.7933 28.8561 37.8857 26.8337C37.9781 24.8072 38 24.1602 38 19C38 13.8399 37.9781 13.1929 37.8857 11.1664C37.7933 9.144 37.4722 7.76289 37.0025 6.55428C36.5169 5.30486 35.8673 4.24528 34.811 3.18901C33.7547 2.13274 32.6951 1.48307 31.4457 0.997513C30.2371 0.527794 28.856 0.206652 26.8336 0.114338C24.8071 0.021872 24.1601 0 19 0ZM19 9.24325C13.6115 9.24325 9.24317 13.6115 9.24317 19C9.24317 24.3885 13.6115 28.7568 19 28.7568C24.3885 28.7568 28.7568 24.3885 28.7568 19C28.7568 13.6115 24.3885 9.24325 19 9.24325ZM19 25.3334C15.5022 25.3334 12.6666 22.4978 12.6666 19C12.6666 15.5023 15.5022 12.6667 19 12.6667C22.4977 12.6667 25.3333 15.5023 25.3333 19C25.3333 22.4978 22.4977 25.3334 19 25.3334ZM31.4222 8.85777C31.4222 10.117 30.4014 11.1378 29.1422 11.1378C27.883 11.1378 26.8622 10.117 26.8622 8.85777C26.8622 7.59855 27.883 6.57781 29.1422 6.57781C30.4014 6.57781 31.4222 7.59855 31.4222 8.85777Z" fill="#0A0A08"/>
</g>
<defs>
<clipPath id="clip0_3_168">
<rect width="38" height="38" fill="white"/>
</clipPath>
</defs>
</svg>
