<svg width="38" height="31" viewBox="0 0 38 31" fill="none" xmlns="http://www.w3.org/2000/svg">
<g clip-path="url(#clip0_3_142)">
<path d="M38 3.77488C36.6018 4.39447 35.0993 4.81323 33.5223 5.00157C35.132 4.03739 36.3681 2.5107 36.9502 0.691653C35.4439 1.5843 33.7754 2.23264 31.9996 2.58209C30.5774 1.06805 28.5512 0.121923 26.3089 0.121923C22.0033 0.121923 18.5125 3.60988 18.5125 7.91202C18.5125 8.52258 18.5816 9.11717 18.7145 9.68732C12.2351 9.36245 6.49054 6.26103 2.64536 1.54791C1.97429 2.69848 1.58983 4.03669 1.58983 5.46435C1.58983 8.16702 2.9663 10.5515 5.05819 11.9485C3.78012 11.908 2.57809 11.5576 1.52687 10.9741C1.52631 11.0066 1.52631 11.0393 1.52631 11.0721C1.52631 14.8465 4.21365 17.9952 7.78014 18.7108C7.12589 18.8888 6.43716 18.984 5.72606 18.984C5.22373 18.984 4.7353 18.9352 4.25938 18.8442C5.25139 21.9393 8.13055 24.1915 11.5421 24.2544C8.87389 26.3438 5.51229 27.5892 1.85976 27.5892C1.23053 27.5892 0.609913 27.5524 0 27.4804C3.45015 29.6908 7.54815 30.9804 11.9508 30.9804C26.2907 30.9804 34.1323 19.1098 34.1323 8.81536C34.1323 8.47758 34.1248 8.1416 34.1098 7.80757C35.6329 6.70923 36.9548 5.33713 38 3.77488Z" fill="#55ACEE"/>
</g>
<defs>
<clipPath id="clip0_3_142">
<rect width="38" height="31" fill="white"/>
</clipPath>
</defs>
</svg>
